<svg width="39" height="27" fill="none" xmlns="http://www.w3.org/2000/svg"><path d="M15.729 18.536v-1.929H18.3v-5.786h-.04c-.321.503-.623.724-1.105 1.146l-1.547-1.608 2.973-2.752h2.29v9h2.572v1.929h-7.714Zm10.286-5.143c0-3.656-2.21-8.357-6.43-8.357-4.218 0-6.428 4.7-6.428 8.357 0 3.656 2.21 8.357 6.429 8.357s6.429-4.7 6.429-8.357ZM36.3 18.536a5.153 5.153 0 0 0-5.143 5.143H8.014a5.153 5.153 0 0 0-5.142-5.143V8.25a5.153 5.153 0 0 0 5.142-5.143h23.143A5.153 5.153 0 0 0 36.3 8.25v10.286ZM38.872 1.82c0-.703-.583-1.285-1.286-1.285h-36C.883.536.3 1.118.3 1.82v23.143c0 .703.583 1.286 1.286 1.286h36c.703 0 1.286-.583 1.286-1.286V1.821Z" fill="#fff"/></svg>