<svg width="31" height="32" fill="none" xmlns="http://www.w3.org/2000/svg"><path d="M25.786 23.964a2.59 2.59 0 0 1-2.572 2.572 2.59 2.59 0 0 1-2.571-2.572 2.59 2.59 0 0 1 2.571-2.571 2.59 2.59 0 0 1 2.572 2.571ZM10.357 8.536a2.59 2.59 0 0 1-2.571 2.571 2.59 2.59 0 0 1-2.572-2.571 2.59 2.59 0 0 1 2.572-2.572 2.59 2.59 0 0 1 2.571 2.572ZM30.93 23.964a7.716 7.716 0 0 0-7.715-7.714 7.716 7.716 0 0 0-7.714 7.714 7.716 7.716 0 0 0 7.714 7.715 7.716 7.716 0 0 0 7.715-7.715ZM29 2.107c0-.703-.583-1.286-1.286-1.286H24.5c-.402 0-.784.201-1.025.523L2.261 29.629c-.16.221-.261.483-.261.764 0 .703.583 1.286 1.286 1.286H6.5c.402 0 .783-.201 1.025-.523L28.739 2.871c.16-.221.261-.483.261-.764ZM15.5 8.536A7.716 7.716 0 0 0 7.786.82 7.716 7.716 0 0 0 .07 8.536a7.716 7.716 0 0 0 7.715 7.714A7.716 7.716 0 0 0 15.5 8.536Z" fill="#fff"/></svg>